<?xml version="1.0" encoding="UTF-8" standalone="no"?>
<svg
   xmlns:dc="http://purl.org/dc/elements/1.1/"
   xmlns:cc="http://creativecommons.org/ns#"
   xmlns:rdf="http://www.w3.org/1999/02/22-rdf-syntax-ns#"
   xmlns:svg="http://www.w3.org/2000/svg"
   xmlns="http://www.w3.org/2000/svg"
   width="10.583333mm"
   height="10.583333mm"
   viewBox="0 0 10.583333 10.583333"
   version="1.1"
   id="svg1279">
  <defs
     id="defs1273" />
  <metadata
     id="metadata1276">
    <rdf:RDF>
      <cc:Work
         rdf:about="">
        <dc:format>image/svg+xml</dc:format>
        <dc:type
           rdf:resource="http://purl.org/dc/dcmitype/StillImage" />
        <dc:title></dc:title>
      </cc:Work>
    </rdf:RDF>
  </metadata>
  <g
     id="layer1"
     transform="translate(-359.83333,-151.94643)">
    <g
       id="g1253"
       transform="matrix(0.13297063,0,0,0.13297063,321.18469,183.48948)">
      <circle
         style="fill:#93000e;fill-opacity:1;stroke:#93000e;stroke-width:0.931;stroke-linejoin:round;stroke-opacity:1;paint-order:fill markers stroke"
         id="circle1249"
         cx="330.45123"
         cy="-197.42245"
         r="39.330254" />
      <path
         style="display:inline;fill:#ffffff;fill-opacity:1;stroke-width:0.0727518"
         d="m 335.25391,-167.87133 c 0.0103,-0.02 0.10444,-0.20006 0.20923,-0.40013 0.30079,-0.57407 0.3542,-1.00041 0.3542,-2.8277 0,-1.91927 -0.0537,-2.22827 -0.47125,-2.71619 -0.14095,-0.16466 -0.25627,-0.32092 -0.25627,-0.34724 0,-0.0263 0.0769,-0.15207 0.17091,-0.27944 0.66523,-0.90141 0.57637,-2.28106 -0.20163,-3.13043 l -0.24354,-0.26587 0.2471,-0.26975 c 0.80189,-0.87547 0.86552,-2.18747 0.15493,-3.19453 l -0.21139,-0.2996 0.19745,-0.20967 c 0.52239,-0.55476 0.59471,-1.23982 0.28984,-2.74554 -0.73445,-3.62732 -2.80862,-6.9276 -5.73274,-9.12158 -0.35012,-0.2627 -0.63658,-0.51209 -0.63658,-0.55419 0,-0.11992 -1.30147,-12.92306 -1.34889,-13.2697 l -0.0423,-0.30918 h 12.73603 c 7.00481,0 12.73602,0.0217 12.73602,0.0482 0,0.0427 -0.60722,6.00326 -1.85537,18.21247 -0.21884,2.14073 -0.77459,7.5839 -1.23498,12.09594 -0.54454,5.33664 -0.87474,8.29385 -0.94483,8.46162 -0.17514,0.41916 -0.39082,0.67286 -0.75299,0.88577 l -0.34083,0.20034 -6.42037,0.0363 c -3.53119,0.02 -6.41198,0.02 -6.40173,0 z m -27.72991,-0.19196 c -0.41473,-0.20665 -0.74417,-0.62381 -0.88065,-1.11506 -0.0981,-0.35297 -0.0931,-3.41295 0.006,-3.6972 0.17069,-0.4896 -0.98577,-0.45216 13.96595,-0.45216 h 13.54 l 0.21602,0.21601 0.216,0.21601 -0.0216,1.96046 -0.0216,1.96045 -0.22028,0.31325 c -0.12116,0.17229 -0.36134,0.41238 -0.53371,0.53353 l -0.31343,0.2203 -12.78257,0.0188 -12.78257,0.0188 z m 0.0293,-6.53732 c -0.5821,-0.20665 -0.97592,-0.88271 -0.8721,-1.49714 0.0593,-0.35082 0.3948,-0.82176 0.70696,-0.99226 0.22586,-0.12336 0.89444,-0.12993 13.2303,-0.12993 h 12.99242 l 0.30042,0.20819 c 0.78715,0.54551 0.78335,1.76522 -0.008,2.28836 l -0.29505,0.19527 -12.8824,0.0155 c -10.97183,0.0131 -12.92556,8e-5 -13.1734,-0.0879 z m 0,-3.92788 c -0.56926,-0.20067 -0.97386,-0.8956 -0.8721,-1.49787 0.0593,-0.35081 0.3948,-0.82174 0.70696,-0.99226 0.22586,-0.12335 0.89444,-0.12991 13.2303,-0.12991 h 12.99242 l 0.30042,0.20818 c 0.78715,0.54551 0.78335,1.76521 -0.008,2.28836 l -0.29505,0.19527 -12.88239,0.0154 c -10.92857,0.013 -12.92654,-1.1e-4 -13.17341,-0.0872 z m -0.523,-3.96244 c -0.33232,-0.20264 -0.39257,-0.49311 -0.26651,-1.2852 0.38651,-2.42895 1.48128,-4.84461 3.04595,-6.72102 2.16925,-2.60143 5.06974,-4.27398 8.47444,-4.88673 1.24282,-0.22367 3.3293,-0.22115 4.61975,0.006 4.53071,0.79608 8.21073,3.53337 10.26096,7.63237 0.62595,1.25143 1.15944,3.00649 1.31366,4.32164 0.0587,0.50011 -0.0385,0.77976 -0.3306,0.95233 -0.19347,0.11429 -1.15231,0.12298 -13.54694,0.12272 -13.08293,-2.3e-4 -13.34318,-0.002 -13.57071,-0.14171 z m 20.50717,-27.26726 c 0.0245,-0.7359 0.0622,-0.99707 0.18228,-1.26387 0.21546,-0.47894 0.62477,-0.90052 1.10176,-1.13477 l 0.41182,-0.20224 h 11.24017 11.24014 l 0.41182,0.20224 c 0.47566,0.23359 0.88464,0.65404 1.1038,1.13477 0.12358,0.27106 0.15868,0.51621 0.18098,1.26387 l 0.0277,0.92759 H 340.4722 327.50648 Z m 16.06435,-3.73491 c 0,-0.0462 0.2638,-1.64335 0.58622,-3.54911 0.43993,-2.6003 0.61695,-3.49459 0.70934,-3.58339 0.19343,-0.18595 8.36486,-6.3188 8.47601,-6.36145 0.12175,-0.0467 1.04344,1.11732 0.9501,1.1999 -0.0502,0.0444 -8.0272,6.04191 -8.08018,6.07506 -0.008,0.005 -0.2532,1.41566 -0.54564,3.13524 l -0.53169,3.1265 -0.78208,0.0207 c -0.55493,0.0146 -0.78208,-0.003 -0.78208,-0.0633 z"
         id="path1251" />
    </g>
  </g>
</svg>
