<?xml version="1.0" encoding="UTF-8" standalone="no"?>
<svg
   xmlns:dc="http://purl.org/dc/elements/1.1/"
   xmlns:cc="http://creativecommons.org/ns#"
   xmlns:rdf="http://www.w3.org/1999/02/22-rdf-syntax-ns#"
   xmlns:svg="http://www.w3.org/2000/svg"
   xmlns="http://www.w3.org/2000/svg"
   width="500"
   height="500"
   viewBox="0 0 132.29166 132.29167"
   version="1.1"
   id="svg8">
  <defs
     id="defs2">
    <clipPath
       clipPathUnits="userSpaceOnUse"
       id="clipPath135">
      <rect
         style="fill:#ff0000;stroke-width:0.931;stroke-linejoin:round;paint-order:fill markers stroke"
         id="rect137"
         width="407.8533"
         height="329.81058"
         x="208.47023"
         y="-249.62973" />
    </clipPath>
  </defs>
  <metadata
     id="metadata5">
    <rdf:RDF>
      <cc:Work
         rdf:about="">
        <dc:format>image/svg+xml</dc:format>
        <dc:type
           rdf:resource="http://purl.org/dc/dcmitype/StillImage" />
        <dc:title></dc:title>
      </cc:Work>
    </rdf:RDF>
  </metadata>
  <g
     id="g139"
     transform="translate(-292.84852,-37.974553)">
    <path
       style="display:inline;fill:#333333;fill-opacity:1;stroke-width:0.162762"
       d="m 369.73905,170.23266 c 0.0229,-0.0448 0.23355,-0.4476 0.46808,-0.8952 0.67295,-1.28431 0.79243,-2.23813 0.79243,-6.32619 0,-4.29383 -0.11994,-4.98513 -1.05429,-6.0767 -0.31533,-0.3684 -0.57333,-0.71799 -0.57333,-0.77687 0,-0.0589 0.17206,-0.34021 0.38236,-0.62518 1.48825,-2.01666 1.28944,-5.10322 -0.45111,-7.00346 l -0.54482,-0.5948 0.55279,-0.60351 c 1.79401,-1.9586 1.93638,-4.89384 0.34663,-7.14688 l -0.47292,-0.67024 0.44172,-0.46909 c 1.16871,-1.24114 1.3305,-2.77375 0.64843,-6.14241 -1.64313,-8.11511 -6.28349,-15.49856 -12.8254,-20.40698 -0.78329,-0.58771 -1.42417,-1.14565 -1.42417,-1.23986 0,-0.26829 -2.91167,-28.911751 -3.01778,-29.68725 l -0.0946,-0.691735 h 28.49333 c 15.67133,0 28.49332,0.04855 28.49332,0.107892 0,0.09555 -1.35849,13.430665 -4.15087,40.745373 -0.48961,4.78928 -1.73293,16.96686 -2.76293,27.0613 -1.21824,11.93924 -1.957,18.55518 -2.11382,18.93053 -0.39182,0.93774 -0.87433,1.50533 -1.68461,1.98165 l -0.76249,0.44822 -14.36378,0.0814 c -7.90008,0.0447 -14.34504,0.0447 -14.32213,0 z m -62.03801,-0.42947 c -0.92781,-0.46234 -1.66485,-1.39558 -1.97018,-2.49463 -0.21938,-0.78969 -0.20837,-7.63555 0.0133,-8.27146 0.38186,-1.09536 -2.2054,-1.01159 31.24494,-1.01159 h 30.29198 l 0.48327,0.48326 0.48326,0.48327 -0.0482,4.38597 -0.0482,4.38597 -0.49282,0.70082 c -0.27106,0.38545 -0.80838,0.92259 -1.19403,1.19364 l -0.7012,0.49283 -28.59747,0.042 -28.59747,0.042 z m 0.0655,-14.62544 c -1.30226,-0.46233 -2.18331,-1.97484 -1.95107,-3.34944 0.1326,-0.78487 0.88327,-1.83845 1.58165,-2.2199 0.50529,-0.27599 2.00105,-0.29068 29.59912,-0.29068 h 29.06694 l 0.6721,0.46577 c 1.76104,1.2204 1.75251,3.94919 -0.016,5.11958 l -0.66011,0.43685 -28.82079,0.0345 c -24.54643,0.0294 -28.91734,1.7e-4 -29.47184,-0.19665 z m 0,-8.78753 c -1.27353,-0.44896 -2.17872,-2.00367 -1.95107,-3.35106 0.1326,-0.78487 0.88327,-1.83845 1.58165,-2.2199 0.50529,-0.27599 2.00105,-0.29067 29.59912,-0.29067 h 29.06694 l 0.6721,0.46576 c 1.76104,1.2204 1.75251,3.94919 -0.016,5.11957 l -0.6601,0.43686 -28.82079,0.0345 c -24.44963,0.0292 -28.91953,-2.6e-4 -29.47184,-0.19504 z m -1.17003,-8.86487 c -0.74349,-0.45334 -0.87825,-1.1032 -0.59626,-2.87529 0.86471,-5.43409 3.31397,-10.83848 6.81447,-15.0364 4.8531,-5.81998 11.34215,-9.56186 18.95922,-10.93271 2.78046,-0.5004 7.44839,-0.49475 10.33539,0.0125 10.13622,1.78102 18.36925,7.90495 22.95606,17.07531 1.40038,2.79974 2.59392,6.72622 2.93896,9.66848 0.13121,1.11886 -0.086,1.74448 -0.73961,2.13059 -0.43284,0.25569 -2.57801,0.27512 -30.30753,0.27456 -29.26943,-5.3e-4 -29.85167,-0.007 -30.3607,-0.31706 z M 352.4756,76.522417 c 0.055,-1.646362 0.13932,-2.23069 0.40782,-2.827568 0.48199,-1.071497 1.39774,-2.014676 2.46488,-2.538731 l 0.92133,-0.452441 h 25.14673 25.14673 l 0.92132,0.452441 c 1.06417,0.522592 1.97914,1.46323 2.46945,2.538731 0.27646,0.606424 0.35499,1.154872 0.40491,2.827568 l 0.0619,2.075217 h -29.00723 -29.00723 z m 35.93953,-8.355837 c 0,-0.103435 0.59018,-3.676504 1.31152,-7.940155 0.98421,-5.817443 1.38026,-7.818168 1.58693,-8.016835 0.43278,-0.416005 18.71408,-14.136556 18.96273,-14.231972 0.27236,-0.104515 2.33441,2.499685 2.12558,2.684446 -0.11241,0.09945 -17.95864,13.517099 -18.07714,13.59126 -0.0172,0.01075 -0.56648,3.167134 -1.22072,7.014221 l -1.18952,6.994701 -1.74969,0.0462 c -1.24152,0.03276 -1.74969,-0.0084 -1.74969,-0.141863 z"
       id="path141" />
  </g>
</svg>
