<?xml version="1.0" encoding="UTF-8" standalone="no"?>
<svg
   xmlns:dc="http://purl.org/dc/elements/1.1/"
   xmlns:cc="http://creativecommons.org/ns#"
   xmlns:rdf="http://www.w3.org/1999/02/22-rdf-syntax-ns#"
   xmlns:svg="http://www.w3.org/2000/svg"
   xmlns="http://www.w3.org/2000/svg"
   width="500"
   height="500"
   viewBox="0 0 132.29166 132.29167"
   version="1.1"
   id="svg8">
  <defs
     id="defs2">
    <clipPath
       clipPathUnits="userSpaceOnUse"
       id="clipPath135">
      <rect
         style="fill:#ff0000;stroke-width:0.931;stroke-linejoin:round;paint-order:fill markers stroke"
         id="rect137"
         width="407.8533"
         height="329.81058"
         x="208.47023"
         y="-249.62973" />
    </clipPath>
  </defs>
  <metadata
     id="metadata5">
    <rdf:RDF>
      <cc:Work
         rdf:about="">
        <dc:format>image/svg+xml</dc:format>
        <dc:type
           rdf:resource="http://purl.org/dc/dcmitype/StillImage" />
        <dc:title></dc:title>
      </cc:Work>
    </rdf:RDF>
  </metadata>
  <g
     id="g159"
     transform="translate(-229.05357,21.922619)">
    <path
       style="display:inline;fill:#000000;fill-opacity:1;stroke-width:0.274595"
       d="m 256.20318,99.283572 c -0.36116,-0.228289 -0.42879,-4.345037 -0.54918,-33.427834 l -0.1373,-33.167484 -10.49596,-0.137298 c -10.04279,-0.131369 -10.5186,-0.161009 -11.02071,-0.686489 -0.41772,-0.437159 -1.01211,-3.310618 -2.91375,-14.085891 -2.79192,-15.8198945 -2.8577,-14.4398019 0.74084,-15.5443763 1.24911,-0.3834157 11.45541,-3.5317182 22.68066,-6.9962275 l 20.40957,-6.2991082 1.44135,0.637436 c 11.72026,5.1832558 26.02008,5.2311104 37.40027,0.125161 l 1.79091,-0.803525 2.9349,0.939403 c 1.61419,0.516671 11.21397,3.4861837 21.33281,6.5989171 10.11886,3.11273308 18.98955,5.8507374 19.71265,6.0844541 2.45052,0.7920498 2.46378,-0.088051 -0.22974,15.2470138 -1.90311,10.835069 -2.48508,13.65751 -2.90663,14.096743 -0.50429,0.525428 -0.98124,0.555131 -11.02304,0.686489 l -10.49596,0.137298 -0.0697,32.931107 c -0.0639,30.164383 -0.10786,32.973193 -0.5231,33.432037 -0.43472,0.480354 -2.03893,0.500754 -39.06014,0.496724 -23.84905,-0.003 -38.76424,-0.10372 -39.01869,-0.26455 z m 74.96465,-36.222063 c 0,-31.278636 0.0246,-32.951493 0.4937,-33.530774 l 0.49372,-0.609702 10.6028,0.04369 c 6.97113,0.02873 10.66222,-0.05243 10.77626,-0.236944 0.0954,-0.154348 1.07479,-5.361071 2.17645,-11.5705 l 2.003,-11.2898735 -0.62742,-0.2385478 c -1.18188,-0.4493474 -39.23587,-12.1474753 -39.61393,-12.1776614 -0.23652,-0.018886 -0.54938,0.5851991 -0.83767,1.6174308 -2.19358,7.8540584 -8.77848,13.9640158 -16.84518,15.6302399 -2.68144,0.553867 -6.50611,0.553867 -9.18755,0 -8.0667,-1.6662241 -14.65159,-7.7761815 -16.84518,-15.6302399 -0.28881,-1.0340849 -0.60072,-1.6358259 -0.83767,-1.6160223 -0.38943,0.032548 -39.79526,12.1637314 -40.07683,12.3377546 -0.17934,0.1108356 3.73099,22.4779736 4.00808,22.9263226 0.12299,0.198993 3.55069,0.277838 10.78311,0.248037 l 10.60281,-0.04369 0.49371,0.609703 c 0.46907,0.579281 0.4937,2.252138 0.4937,33.530774 v 32.921075 h 35.97204 35.97205 z M 300.825,6.6341928 c 1.20822,-0.387737 2.99132,-1.1715186 3.96244,-1.7417367 3.26097,-1.9147595 6.52749,-5.78609474 7.88798,-9.3484996 0.24661,-0.6457328 0.37996,-1.2424797 0.29634,-1.3261038 -0.0836,-0.083624 -1.30626,0.2176551 -2.71696,0.6695098 -4.52017,1.4478338 -8.10925,2.022026 -13.56748,2.1705645 -6.58026,0.1790727 -11.0249,-0.4041268 -16.55055,-2.1716603 -1.4107,-0.4512521 -2.63164,-0.7537243 -2.71321,-0.6721603 -0.24582,0.2458291 1.02958,3.1153472 2.16651,4.87440403 C 284.07765,6.0316606 292.916,9.17231 300.825,6.6341928 Z"
       id="path161" />
  </g>
  <g
     id="g3791"
     transform="matrix(0.04896805,0,0,0.04896805,57.75131,52.808789)"
     style="display:inline">
    <g
       transform="translate(171.42857,-198.00001)"
       id="g3977"
       style="display:inline">
      <path
         d="m 687.16088,155.68926 c 1.58733,0.43481 4.53137,2.24474 3.52916,5.7212 C 680.12371,198.0628 605.2641,453.34401 556.07142,556.6479 358.85086,970.80808 139.31698,1052.3622 0,1052.3622 c -139.31698,0 -358.85086,-81.55412 -556.07142,-495.7143 -49.19268,-103.30389 -124.05229,-358.5851 -134.61862,-395.23744 -1.00221,-3.47646 1.94183,-5.28639 3.52916,-5.7212 L 0,-32.541653 Z"
         id="path3831"
         style="fill:#060604;fill-opacity:1;stroke:none" />
      <g
         id="g3966"
         style="display:inline;fill:#ffffff">
        <g
           id="g3938"
           style="fill:#ffffff;fill-opacity:1;stroke:none">
          <path
             d="m -377.36601,546.9519 -85.00054,34.63414 c 14.12592,41.29378 30.02554,59.49701 66.40866,44.67242 37.9242,-15.45252 36.69141,-40.09166 18.59188,-79.30656 z m 48.38782,16.53523 c 19.51895,46.07935 -8.19133,87.79538 -49.60766,103.51376 -37.39724,14.19318 -86.32042,11.27779 -107.37213,-41.09362 l -28.23905,-70.25208 154.84821,-63.86545 z"
             id="path3884"
             style="fill:#ffffff;fill-opacity:1;stroke:none" />
          <path
             d="m -232.21397,694.18054 c -1.05031,-1.22921 -2.1279,-2.47396 -3.25676,-3.71308 l -43.98337,-48.24316 -130.31255,108.5875 24.14994,28.93318 45.88231,-38.51771 c 3.01055,3.58788 5.97674,6.97818 8.88226,10.17118 l -6.51589,73.60495 36.6655,34.53106 6.88014,-75.65767 c 29.25695,18.39322 51.5482,13.30063 69.38003,-1.67851 20.05774,-16.84893 24.7991,-49.91913 -7.77176,-88.01761 z m -38.39945,15.03528 c 23.52967,28.06791 22.49577,38.70101 16.29943,44.26121 -10.23121,9.18091 -19.65401,4.78271 -57.0274,-36.07194 l 27.47657,-23.01792 c 5.07852,5.4124 9.49937,10.35297 13.2514,14.82865 z"
             id="path3886"
             style="fill:#ffffff;fill-opacity:1;stroke:none" />
          <path
             d="m -175.2386,771.95914 103.362535,62.3539 -17.054423,29.5302 -66.690892,-40.51762 -15.34164,25.25192 59.78441,36.32163 -17.43959,28.70507 -59.7844,-36.32163 -16.6529,27.41021 69.06498,41.95999 -19.27531,31.72663 -105.53989,-64.12008 z"
             id="path3908"
             style="fill:#ffffff;fill-opacity:1;stroke:none" />
          <path
             d="m 20.464003,901.56455 43.5714,-0.7143 c -2.5,-33.5714 -23.5714,-52.5 -69.6429001,-52.5 -46.0713999,0 -66.4284999,26.0714 -66.4284999,50 0,23.9286 7.5,41.4286 66.4284999,53.9286 30.2100001,6.4082 32.1429001,12.1428 32.1429001,21.0714 0,8.9286 -11.4286,15 -27.50000008,15 -16.07139992,0 -29.99999992,-5.8961 -29.99999992,-24.2857 l -43.9286,1.0714 c 0,0 -6.4286,57.14285 72.8571999,57.14285 58.2143001,0 72.8571001,-30.71425 72.8571001,-54.28565 0,-23.5715 -11.9101,-44.2661 -57.5,-52.1429 -35.0513,-6.056 -41.0714,-11.7857 -41.0714,-20 0,-8.2143 6.7857,-13.5714 21.7856999,-13.5714 15,0 26.4286001,7.8571 26.4286001,19.2857 z"
             id="path3912"
             style="fill:#ffffff;fill-opacity:1;stroke:none" />
          <path
             d="m 453.4254,692.60792 16.83782,-37.85256 -95.28396,-42.38483 118.76276,-11.27597 18.14422,-40.78941 -153.04173,-68.07702 -16.83782,37.85256 92.99976,41.36875 -116.47856,12.29205 -18.61572,40.97051 z"
             id="path3916"
             style="fill:#ffffff;fill-opacity:1;stroke:none" />
          <path
             d="m 122.58352,847.95582 48.96668,77.63297 c 38.18671,-21.13036 53.32858,-39.9686 32.36918,-73.19815 -21.84718,-34.63708 -45.89094,-29.11396 -81.33586,-4.43482 z m 7.81745,-50.53403 c 41.9553,-27.27726 87.87482,-7.29004 110.59449,30.73874 20.51509,34.33848 26.20121,83.01757 -21.6811,112.90441 L 155.08404,981.15563 65.120452,839.86404 Z"
             id="path3919"
             style="fill:#ffffff;fill-opacity:1;stroke:none" />
          <path
             d="m 199.10278,737.18765 80.62538,-89.8408 25.80948,22.28788 -52.30151,57.91291 21.92822,19.8035 46.88518,-51.91547 24.92693,22.51167 -46.88518,51.91546 23.80235,21.49606 54.16336,-59.97451 27.55079,24.88129 -82.76835,91.64852 z"
             id="path3921"
             style="fill:#ffffff;fill-opacity:1;stroke:none" />
        </g>
        <path
           d="M 614.69532,194.61032 507.48791,512.37921 c -0.7603,2.25357 0.45841,4.68549 2.73253,5.45272 l 14.2465,4.80642 c 2.27413,0.76723 4.71701,-0.42935 5.47731,-2.68292 L 637.15166,202.18654 c 0.7603,-2.25358 -0.45841,-4.68549 -2.73254,-5.45273 l -14.2465,-4.80642 c -2.27412,-0.76723 -4.717,0.42935 -5.4773,2.68293 z M 580.64862,183.1238 473.44121,500.89269 c -0.7603,2.25357 0.45841,4.68549 2.73253,5.45272 l 14.2465,4.80642 c 2.27413,0.76723 4.71701,-0.42935 5.47731,-2.68292 L 603.10496,190.70002 c 0.7603,-2.25358 -0.45842,-4.68549 -2.73254,-5.45273 l -14.2465,-4.80642 c -2.27412,-0.76723 -4.717,0.42935 -5.4773,2.68293 z m -34.0467,-11.48652 -107.20741,317.76889 c -0.7603,2.25357 0.45841,4.68549 2.73253,5.45272 l 14.24651,4.80642 c 2.27413,0.76724 4.717,-0.42935 5.4773,-2.68292 L 569.05825,179.2135 c 0.76031,-2.25358 -0.4584,-4.68549 -2.73252,-5.45272 l -14.24651,-4.80643 c -2.27413,-0.76723 -4.717,0.42935 -5.4773,2.68293 z m -34.0467,-11.48652 -107.20741,317.76889 c -0.7603,2.25357 0.45841,4.68549 2.73253,5.45272 l 14.24651,4.80642 c 2.27413,0.76724 4.71699,-0.42935 5.47729,-2.68292 L 535.01155,167.72698 c 0.7603,-2.25358 -0.4584,-4.68549 -2.73252,-5.45272 l -14.24651,-4.80643 c -2.27413,-0.76723 -4.717,0.42936 -5.4773,2.68293 z M 478.50872,148.66431 371.30131,466.4332 c -0.7603,2.25357 0.45841,4.68549 2.73254,5.45272 l 14.2465,4.80642 c 2.27412,0.76724 4.717,-0.42935 5.4773,-2.68292 L 500.96506,156.24053 c 0.7603,-2.25358 -0.45841,-4.68549 -2.73253,-5.45273 l -14.2465,-4.80642 c -2.27413,-0.76723 -4.71701,0.42936 -5.47731,2.68293 z m -1093.20404,45.94601 107.20741,317.76889 c 0.7603,2.25357 -0.45841,4.68549 -2.73253,5.45272 l -14.2465,4.80642 c -2.27413,0.76723 -4.71701,-0.42935 -5.47731,-2.68292 L -637.15166,202.18654 c -0.7603,-2.25358 0.45841,-4.68549 2.73254,-5.45273 l 14.2465,-4.80642 c 2.27412,-0.76723 4.717,0.42935 5.4773,2.68293 z m 34.0467,-11.48652 107.20741,317.76889 c 0.7603,2.25357 -0.45841,4.68549 -2.73253,5.45272 l -14.2465,4.80642 c -2.27413,0.76723 -4.71701,-0.42935 -5.47731,-2.68292 L -603.10496,190.70002 c -0.7603,-2.25358 0.45842,-4.68549 2.73254,-5.45273 l 14.2465,-4.80642 c 2.27412,-0.76723 4.717,0.42935 5.4773,2.68293 z m 34.0467,-11.48652 107.20741,317.76889 c 0.7603,2.25357 -0.45841,4.68549 -2.73253,5.45272 l -14.24651,4.80642 c -2.27413,0.76724 -4.717,-0.42935 -5.4773,-2.68292 L -569.05825,179.2135 c -0.76031,-2.25358 0.4584,-4.68549 2.73252,-5.45272 l 14.24651,-4.80643 c 2.27413,-0.76723 4.717,0.42935 5.4773,2.68293 z m 34.0467,-11.48652 107.20741,317.76889 c 0.7603,2.25357 -0.45841,4.68549 -2.73253,5.45272 l -14.24651,4.80642 c -2.27413,0.76724 -4.71699,-0.42935 -5.47729,-2.68292 L -535.01155,167.72698 c -0.7603,-2.25358 0.4584,-4.68549 2.73252,-5.45272 l 14.24651,-4.80643 c 2.27413,-0.76723 4.717,0.42936 5.4773,2.68293 z m 34.0465,-11.48645 107.20741,317.76889 c 0.7603,2.25357 -0.45841,4.68549 -2.73254,5.45272 l -14.2465,4.80642 c -2.27412,0.76724 -4.717,-0.42935 -5.4773,-2.68292 L -500.96506,156.24053 c -0.7603,-2.25358 0.45841,-4.68549 2.73253,-5.45273 l 14.2465,-4.80642 c 2.27413,-0.76723 4.71701,0.42936 5.47731,2.68293 z"
           id="path3926"
           style="fill:#ffffff;fill-opacity:1;stroke:none" />
      </g>
    </g>
    <g
       id="g3786"
       style="display:inline">
      <path
         d="m 542.47001,-234.71653 c 43.78094,20.24733 66.26403,49.19789 73.93076,62.0061 38.47626,64.27933 -56.82108,348.50262 -170.96832,535.38085 C 361.07503,500.7777 263.96131,606.6836 171.42857,606.6836 c -92.532738,0 -189.64646,-105.9059 -274.00388,-244.01318 -114.14724,-186.87823 -209.44458,-471.10152 -170.96832,-535.38085 7.66673,-12.80821 30.14982,-41.75877 73.93076,-62.0061 107.92148,-49.91035 269.21933,-74.9213 371.04144,-74.9213 101.82211,0 263.11996,25.01095 371.04144,74.9213 z"
         id="path3823"
         style="fill:#000000;fill-opacity:1;stroke:none" />
      <path
         d="m -115,225.07645 c -77.4448,-157.5342 -120.62343,-330.98797 -104.28572,-359.28571 38.65878,-66.95897 245.31417,-111.98976 390.71429,-112.70405 145.3962,-0.71428 352.05551,44.31651 390.71429,111.27548 16.33771,28.29774 -26.84092,201.75151 -104.28572,359.28571 C 386.60559,368.58411 263.44498,547.21933 171.42857,547.93359 79.404402,548.64792 -43.74845,370.01268 -115,225.07645 Z"
         id="path3826"
         style="display:inline;fill:none;stroke:#fdfdfd;stroke-width:13.2;stroke-linecap:butt;stroke-linejoin:miter;stroke-miterlimit:4;stroke-dasharray:none;stroke-opacity:1" />
      <path
         d="m 200.52232,-221.54408 c -2.08885,-0.0228 -4.50214,0.10714 -7.125,0.375 -38.43625,3.92527 -102.244921,34.1939 -133.6875,76.0625 -37.90352,11.58206 -72.65908,27.73964 -101.125,46.625 -84.02964,55.7484 -97.18977,114.20596 -100.71875,127.84375 -2.6971,10.42298 -2.09978,16.09534 10.71875,7.6875 16.40691,-10.7615 74.17583,-57.22543 140.15113,-80.46602 5.09138,-1.7935 8.37783,0.45448 7.99337,3.84348 -4.79867,42.30022 -2.81805,100.93847 2.543,128.93504 9.64286,50.35714 21.82655,137.13544 5.90625,192.59375 -15.1145,52.65131 -23.86034,57.0151 -29.09375,70.96875 -2.36406,6.30321 0.79647,8.9218 10,5.1875 24.52635,-9.95149 87.473214,-6.25893 158.1875,19.8125 64.36938,23.73215 123.77678,4.125 163.0625,-25.875 49.39221,-37.71768 112.74716,-145.11198 122.65625,-244.125 13.82898,-138.18109 -59.20782,-216.32837 -145.71875,-250.71875 -44.94651,-17.86742 -94.57442,-23.71094 -143.53125,-20.75 5.24959,-11.9946 16.47075,-30.36178 39.625,-46.375 12.19691,-8.43525 9.20793,-11.52613 0.15625,-11.625 z m -35.03125,143.5625 c 26.348,-0.14294 51.28125,4.03125 78.78125,13.40625 52.37126,17.85383 86.80059,53.86716 104.3125,104.28125 22.9657,66.11471 21.77996,130.62511 4.625,172.5 -17.11555,41.77869 -53.55219,76.4375 -99.625,76.4375 -16.8367,0 -33.2803,-10.43642 -85.71875,-13.875 -30.79659,-2.01945 -45.8125,0.0312 -45.8125,0.0312 0,0 22.46359,-45.19703 25.125,-104.8125 3.22549,-72.25102 -6.86693,-150.3054 -15.34375,-193.625 -3.97176,-20.29733 0.37642,-39.6967 12.625,-53.34375 7.14453,-0.61328 14.14725,-0.96265 21.03125,-1 z"
         id="path3834"
         style="fill:#fdfdfd;fill-opacity:1;stroke:none" />
    </g>
  </g>
</svg>
