<?xml version="1.0" encoding="UTF-8" standalone="no"?>
<svg
   xmlns:dc="http://purl.org/dc/elements/1.1/"
   xmlns:cc="http://creativecommons.org/ns#"
   xmlns:rdf="http://www.w3.org/1999/02/22-rdf-syntax-ns#"
   xmlns:svg="http://www.w3.org/2000/svg"
   xmlns="http://www.w3.org/2000/svg"
   xmlns:sodipodi="http://sodipodi.sourceforge.net/DTD/sodipodi-0.dtd"
   xmlns:inkscape="http://www.inkscape.org/namespaces/inkscape"
   width="500"
   height="500"
   viewBox="0 0 132.29166 132.29167"
   version="1.1"
   id="svg8"
   inkscape:version="1.0.1 (3bc2e813f5, 2020-09-07)"
   sodipodi:docname="rollstuhl.svg">
  <defs
     id="defs2" />
  <sodipodi:namedview
     id="base"
     pagecolor="#ffffff"
     bordercolor="#666666"
     borderopacity="1.0"
     inkscape:pageopacity="0.0"
     inkscape:pageshadow="2"
     inkscape:zoom="0.7"
     inkscape:cx="194.99263"
     inkscape:cy="329.74709"
     inkscape:document-units="mm"
     inkscape:current-layer="svg8"
     inkscape:document-rotation="0"
     showgrid="false"
     units="px"
     inkscape:window-width="1920"
     inkscape:window-height="1009"
     inkscape:window-x="-9"
     inkscape:window-y="-9"
     inkscape:window-maximized="1" />
  <metadata
     id="metadata5">
    <rdf:RDF>
      <cc:Work
         rdf:about="">
        <dc:format>image/svg+xml</dc:format>
        <dc:type
           rdf:resource="http://purl.org/dc/dcmitype/StillImage" />
        <dc:title></dc:title>
      </cc:Work>
    </rdf:RDF>
  </metadata>
  <g
     id="g123"
     transform="matrix(1.1750458,0,0,1.1750458,-209.13519,-191.4098)"
     style="fill:#000000"
     inkscape:label="rollstuhlfahrer">
    <path
       style="display:inline;fill:#000000;fill-opacity:1;stroke-width:0.264583"
       d="m 220.41823,275.3153 c -14.22081,-2.24581 -26.01775,-12.59204 -30.08799,-26.38798 -2.36906,-8.02986 -1.92152,-16.7407 1.25962,-24.51684 2.61007,-6.3802 7.14143,-12.15164 12.62979,-16.08614 3.10119,-2.22319 2.89527,-2.29025 3.09711,1.00856 0.0953,1.55752 0.17327,3.52831 0.17327,4.37952 v 1.54765 l -2.20042,2.1815 c -9.98737,9.9015 -11.68952,25.37094 -4.07674,37.04998 7.00121,10.7408 19.8845,15.77027 32.28577,12.60394 8.02836,-2.04982 15.18685,-7.83582 18.96089,-15.32554 1.14613,-2.27454 2.34557,-5.69808 2.57233,-7.34219 0.0853,-0.61847 0.22821,-1.12444 0.31757,-1.12439 0.0894,5e-5 1.3286,1.98642 2.75386,4.41416 l 2.59139,4.41406 -0.56688,1.34053 c -1.60582,3.79733 -4.13436,7.46475 -7.64314,11.08567 -4.80837,4.96204 -10.46311,8.21331 -17.42315,10.01767 -2.82365,0.73201 -3.54201,0.81063 -8.12461,0.88921 -2.76489,0.0474 -5.6983,-0.0198 -6.51867,-0.14937 z m 51.8643,-15.17913 c -1.542,-0.55105 -2.52625,-1.4016 -3.4902,-3.01612 -7.56132,-12.66438 -13.46094,-22.63039 -13.57951,-22.93937 -0.12825,-0.33424 -2.54961,-0.39799 -17.51966,-0.46127 l -17.37084,-0.0734 -1.52047,-0.614 c -3.15145,-1.27261 -5.78392,-4.62496 -6.14312,-7.82304 -0.15203,-1.35356 -0.92572,-14.76665 -1.51329,-26.23505 -0.35505,-6.93009 -0.23434,-7.73903 1.54678,-10.36523 1.55842,-2.29784 4.85579,-4.04779 7.61197,-4.03975 3.88065,0.0113 7.93524,2.94103 9.13331,6.59942 0.22973,0.70149 0.99794,9.83566 1.06355,12.64588 0.006,0.25862 2.19124,0.33072 10.02277,0.33072 9.97889,0 10.01826,0.002 10.90776,0.60161 2.90509,1.95774 2.7677,5.91684 -0.26077,7.51448 -1.15763,0.6107 -1.23494,0.61516 -10.64948,0.61516 h -9.48339 l 0.002,1.12448 c 0.001,0.61847 0.0774,1.92401 0.16969,2.9012 l 0.16781,1.77672 13.30157,0.0754 13.30157,0.0754 1.14697,0.80241 c 1.27745,0.8937 1.34584,1.00261 13.14065,20.92533 3.80109,6.42046 7.03305,11.99438 7.18213,12.38649 0.14908,0.39211 0.26844,1.27072 0.26525,1.95247 -0.0181,3.8508 -3.82013,6.53123 -7.43293,5.24015 z M 216.01465,181.8967 c -2.01583,-0.79207 -4.29678,-3.00003 -5.21661,-5.04968 -0.87902,-1.95873 -1.14492,-4.55647 -0.66931,-6.53902 0.73779,-3.07544 3.50369,-5.95886 6.65761,-6.94047 2.04844,-0.63755 3.71826,-0.62974 5.82321,0.0272 6.96138,2.17265 9.15027,11.01784 4.01542,16.22609 -0.67304,0.68267 -1.89023,1.56854 -2.70485,1.9686 -2.02702,0.99547 -5.78251,1.14144 -7.90547,0.30727 z"
       id="path125" />
  </g>
</svg>
