<?xml version="1.0" encoding="UTF-8" standalone="no"?>
<svg
   xmlns:dc="http://purl.org/dc/elements/1.1/"
   xmlns:cc="http://creativecommons.org/ns#"
   xmlns:rdf="http://www.w3.org/1999/02/22-rdf-syntax-ns#"
   xmlns:svg="http://www.w3.org/2000/svg"
   xmlns="http://www.w3.org/2000/svg"
   width="10.583333mm"
   height="10.583333mm"
   viewBox="0 0 10.583333 10.583333"
   version="1.1"
   id="svg1279">
  <defs
     id="defs1273" />
  <metadata
     id="metadata1276">
    <rdf:RDF>
      <cc:Work
         rdf:about="">
        <dc:format>image/svg+xml</dc:format>
        <dc:type
           rdf:resource="http://purl.org/dc/dcmitype/StillImage" />
        <dc:title></dc:title>
      </cc:Work>
    </rdf:RDF>
  </metadata>
  <g
     id="layer1"
     transform="translate(-280.45833,-115.66072)">
    <g
       id="g1159"
       transform="matrix(0.13297063,0,0,0.13297063,261.45987,149.23405)">
      <circle
         style="fill:#93000e;fill-opacity:1;stroke:#93000e;stroke-width:0.931;stroke-linejoin:round;stroke-opacity:1;paint-order:fill markers stroke"
         id="circle1153"
         cx="182.67287"
         cy="-212.69107"
         r="39.330254" />
      <path
         style="display:inline;fill:#ffffff;fill-opacity:1;stroke-width:0.166118"
         d="m 173.97452,-177.45146 c -8.92852,-1.41003 -16.33521,-7.90589 -18.89071,-16.56765 -1.48741,-5.04154 -1.20642,-10.51062 0.79085,-15.39286 1.63873,-4.0058 4.48374,-7.62939 7.92959,-10.09966 1.94708,-1.39582 1.8178,-1.43793 1.94453,0.63323 0.0598,0.97788 0.10878,2.21524 0.10878,2.74967 v 0.9717 l -1.38153,1.36964 c -6.27055,6.21665 -7.33925,15.92911 -2.55957,23.26177 4.39569,6.7436 12.48446,9.90134 20.27057,7.91337 5.04059,-1.28698 9.53503,-4.9197 11.90456,-9.62213 0.7196,-1.42806 1.47266,-3.57753 1.61504,-4.60978 0.0536,-0.38829 0.14328,-0.70597 0.19939,-0.70594 0.0561,3e-5 0.83415,1.24717 1.729,2.77143 l 1.627,2.77136 -0.35592,0.84164 c -1.00821,2.38415 -2.59575,4.68673 -4.79873,6.96013 -3.01892,3.1154 -6.56924,5.15671 -10.9391,6.28957 -1.77282,0.4596 -2.22384,0.50896 -5.10102,0.55829 -1.73593,0.0297 -3.57767,-0.0125 -4.09273,-0.0937 z m 32.56291,-9.53019 c -0.96814,-0.34598 -1.58611,-0.87999 -2.19131,-1.89367 -4.74737,-7.95131 -8.45144,-14.20845 -8.52589,-14.40245 -0.0805,-0.20985 -1.60075,-0.24988 -10.99968,-0.2896 l -10.90625,-0.0461 -0.95463,-0.3855 c -1.97862,-0.79901 -3.63142,-2.90377 -3.85695,-4.91168 -0.0955,-0.84984 -0.5812,-9.27122 -0.95011,-16.47163 -0.22292,-4.35106 -0.14714,-4.85895 0.97115,-6.5078 0.97844,-1.44269 3.04869,-2.5414 4.77915,-2.53635 2.43647,0.008 4.98214,1.84652 5.73434,4.14343 0.14424,0.44044 0.62655,6.1753 0.66774,7.93969 0.003,0.16238 1.37578,0.20765 6.29278,0.20765 6.26523,0 6.28996,0.001 6.84842,0.37772 1.82397,1.22916 1.7377,3.71488 -0.16372,4.71796 -0.72681,0.38342 -0.77536,0.38622 -6.68626,0.38622 h -5.95413 l 0.001,0.706 c 5.3e-4,0.38831 0.0486,1.208 0.10656,1.82152 l 0.10537,1.11551 8.35137,0.0474 8.35138,0.0474 0.72011,0.50379 c 0.80205,0.5611 0.84498,0.62949 8.25033,13.13793 2.38651,4.03108 4.41569,7.53065 4.5093,7.77684 0.0936,0.24618 0.16854,0.79782 0.16653,1.22586 -0.0114,2.41771 -2.39846,4.10061 -4.66675,3.29002 z m -35.3277,-49.12253 c -1.26563,-0.49729 -2.69772,-1.88356 -3.27524,-3.17043 -0.55189,-1.22979 -0.71884,-2.86077 -0.42022,-4.10551 0.46322,-1.93091 2.19979,-3.74126 4.17997,-4.35757 1.28611,-0.40028 2.3345,-0.39538 3.65609,0.0171 4.37069,1.36409 5.74498,6.91752 2.52107,10.18752 -0.42256,0.42861 -1.18678,0.9848 -1.69823,1.23598 -1.27266,0.625 -3.63055,0.71665 -4.96344,0.19292 z"
         id="path125" />
    </g>
  </g>
</svg>
