<?xml version="1.0" encoding="UTF-8" standalone="no"?>
<svg
   xmlns:dc="http://purl.org/dc/elements/1.1/"
   xmlns:cc="http://creativecommons.org/ns#"
   xmlns:rdf="http://www.w3.org/1999/02/22-rdf-syntax-ns#"
   xmlns:svg="http://www.w3.org/2000/svg"
   xmlns="http://www.w3.org/2000/svg"
   width="10.583333mm"
   height="10.583333mm"
   viewBox="0 0 10.583333 10.583333"
   version="1.1"
   id="svg1279">
  <defs
     id="defs1273" />
  <metadata
     id="metadata1276">
    <rdf:RDF>
      <cc:Work
         rdf:about="">
        <dc:format>image/svg+xml</dc:format>
        <dc:type
           rdf:resource="http://purl.org/dc/dcmitype/StillImage" />
        <dc:title></dc:title>
      </cc:Work>
    </rdf:RDF>
  </metadata>
  <g
     id="layer1"
     transform="translate(-272.89881,-83.910717)">
    <g
       id="g1243"
       transform="matrix(0.13297063,0,0,0.13297063,278.26368,117.41154)">
      <g
         id="g1235">
        <g
           id="g1228">
          <g
             id="g1222">
            <g
               id="g1217">
              <circle
                 style="fill:#93000e;fill-opacity:1;stroke:#93000e;stroke-width:0.931;stroke-linejoin:round;stroke-opacity:1;paint-order:fill markers stroke"
                 id="circle1155"
                 cx="-0.55050129"
                 cy="-212.14577"
                 r="39.330254" />
              <path
                 style="display:inline;fill:#ffffff;fill-opacity:1;stroke-width:0.123733"
                 d="m -24.673064,-182.99951 c -0.603333,-0.21881 -1.233076,-0.77135 -1.545593,-1.35608 l -0.278102,-0.52037 -0.06186,-20.09325 c -0.05839,-18.96314 -0.07404,-20.10093 -0.278398,-20.22983 -0.157846,-0.0995 -0.275224,-0.0995 -0.43307,-1.1e-4 -0.201858,0.12723 -0.221458,0.74353 -0.289185,9.09379 -0.07169,8.83821 -0.07618,8.9642 -0.337465,9.47279 -0.836228,1.62767 -3.18756,1.62518 -4.079677,-0.004 -0.196022,-0.35804 -0.208759,-1.07631 -0.168169,-9.48182 0.02418,-5.00193 0.09419,-9.36875 0.155615,-9.70404 0.353605,-1.92994 1.829286,-3.58204 3.727145,-4.17272 0.679696,-0.21154 1.276309,-0.22888 7.878459,-0.22888 5.995162,0 7.243697,0.0299 7.769247,0.18595 2.016132,0.59873 3.5430248,2.31003 3.8761641,4.34431 0.1734118,1.05891 0.157688,18.03675 -0.017303,18.66703 -0.2785364,1.00329 -1.5323011,1.80854 -2.5016841,1.60675 -0.725243,-0.15097 -1.403591,-0.63908 -1.679102,-1.20822 -0.255874,-0.52856 -0.259353,-0.65397 -0.259353,-9.35177 0,-5.84049 -0.04325,-8.89681 -0.128085,-9.05537 -0.13805,-0.25795 -0.440469,-0.30637 -0.73805,-0.11816 -0.16373,0.10359 -0.185599,2.48318 -0.185599,20.19764 v 20.08025 l -0.26636,0.49493 c -0.342245,0.63595 -0.711383,0.97479 -1.404045,1.28881 -1.296371,0.58772 -2.796943,0.0431 -3.499068,-1.26984 l -0.274809,-0.51399 -0.03341,-11.53817 -0.03341,-11.53817 h -0.613713 -0.613709 l -0.03341,11.53817 -0.03341,11.53817 -0.274809,0.5139 c -0.655952,1.22665 -2.099521,1.81453 -3.345778,1.36254 z m 36.781229,-0.3753 c -0.727525,-0.34173 -0.950134,-0.56918 -1.289691,-1.31777 -0.24517,-0.54052 -0.251625,-0.77489 -0.254269,-9.24687 l -0.0031,-8.69229 H 9.4569677 c -0.9968484,0 -1.1397819,-0.03 -1.4713008,-0.30897 -0.2019537,-0.16993 -0.4020751,-0.44796 -0.4447188,-0.61786 -0.046641,-0.18591 0.5917021,-3.73777 1.6034068,-8.92145 0.9245121,-4.7369 1.6567951,-8.63669 1.6272901,-8.66619 -0.06642,-0.0664 -0.154417,0.17158 -2.4237778,6.552 -1.9127088,5.37764 -2.0451791,5.6576 -2.8846644,6.09616 -0.1837656,0.096 -0.6216235,0.17455 -0.9730176,0.17455 -1.2705551,0 -2.2192629,-0.93367 -2.2192629,-2.18408 0,-0.48333 0.5564711,-2.20411 2.5886993,-8.00506 2.5470447,-7.2705 3.0901063,-8.67772 3.6034336,-9.33763 0.6775621,-0.87101 1.3562486,-1.45563 2.0980258,-1.80725 l 0.804265,-0.38124 5.040743,-0.0361 c 5.561109,-0.0399 5.751766,-0.0199 6.914213,0.72608 1.087362,0.69776 1.885703,1.86747 2.62849,3.85119 0.585341,1.56326 4.988418,14.18516 5.089655,14.59005 0.100883,0.40343 -0.13118,1.29479 -0.455713,1.75055 -0.742319,1.04248 -2.557383,1.11451 -3.460594,0.13732 -0.346834,-0.37525 -0.518023,-0.82902 -3.027692,-8.02539 -0.806608,-2.31293 -1.482389,-4.12253 -1.501723,-4.02134 -0.01936,0.10119 0.689962,3.92577 1.576224,8.49905 0.886252,4.5733 1.611372,8.51818 1.611372,8.7664 0,0.34532 -0.09026,0.5356 -0.384283,0.81028 -0.364439,0.34043 -0.441127,0.35898 -1.484804,0.35898 h -1.100522 v 8.4078 c 0,5.45064 -0.04612,8.62271 -0.131034,9.01883 -0.254664,1.18746 -1.403233,2.11496 -2.626012,2.12057 -1.063052,0.005 -1.940955,-0.54122 -2.482038,-1.54396 -0.265399,-0.49185 -0.267283,-0.54955 -0.302691,-9.24909 l -0.03571,-8.75415 h -0.613972 -0.613971 l -0.001,8.69228 -10e-4,8.69231 -0.290583,0.61865 c -0.341712,0.72754 -0.569173,0.95013 -1.317759,1.28969 -0.74007,0.3357 -1.52167,0.32338 -2.286852,-0.036 z m -15.3429821,-2.7218 c -0.2041619,-0.0939 -0.5104043,-0.32151 -0.6805376,-0.5058 l -0.3093344,-0.33508 v -25.22359 -25.22358 l 0.3660601,-0.38209 c 0.9199742,-0.96024 2.4457471,-0.6826 2.90464056,0.52856 0.0918776,0.24249 0.13197475,7.86592 0.13197475,25.09098 0,20.81646 -0.0272457,24.80784 -0.17160028,25.15336 -0.33543393,0.80281 -1.46408223,1.25464 -2.24120313,0.89724 z m 19.1008531,-45.7349 c -2.757202,-0.48295 -4.488873,-3.20028 -3.767148,-5.91141 0.830792,-3.12085 4.489072,-4.47406 7.210991,-2.66735 1.115368,0.74035 1.79596,1.82826 2.022067,3.2323 0.501959,3.11688 -2.337626,5.89439 -5.46591,5.34646 z m -36.936216,-0.13352 c -2.553773,-0.34144 -4.424448,-2.88238 -4.011203,-5.4484 0.604212,-3.7518 5.132692,-5.34245 7.899866,-2.77487 3.444164,3.19575 0.77205,8.84641 -3.888663,8.22327 z"
                 id="path151" />
            </g>
          </g>
        </g>
      </g>
    </g>
  </g>
</svg>
