<?xml version="1.0" encoding="UTF-8" standalone="no"?>
<svg
   xmlns:dc="http://purl.org/dc/elements/1.1/"
   xmlns:cc="http://creativecommons.org/ns#"
   xmlns:rdf="http://www.w3.org/1999/02/22-rdf-syntax-ns#"
   xmlns:svg="http://www.w3.org/2000/svg"
   xmlns="http://www.w3.org/2000/svg"
   width="500"
   height="500"
   viewBox="0 0 132.29166 132.29167"
   version="1.1"
   id="svg8">
  <defs
     id="defs2">
    <clipPath
       clipPathUnits="userSpaceOnUse"
       id="clipPath135">
      <rect
         style="fill:#ff0000;stroke-width:0.931;stroke-linejoin:round;paint-order:fill markers stroke"
         id="rect137"
         width="407.8533"
         height="329.81058"
         x="208.47023"
         y="-249.62973" />
    </clipPath>
  </defs>
  <metadata
     id="metadata5">
    <rdf:RDF>
      <cc:Work
         rdf:about="">
        <dc:format>image/svg+xml</dc:format>
        <dc:type
           rdf:resource="http://purl.org/dc/dcmitype/StillImage" />
        <dc:title></dc:title>
      </cc:Work>
    </rdf:RDF>
  </metadata>
  <g
     id="g149"
     transform="translate(-1.336348,-25.390605)">
    <path
       style="display:inline;fill:#000000;fill-opacity:1;stroke-width:0.258896"
       d="m 17.008631,152.5211 c -1.262394,-0.45783 -2.580047,-1.61393 -3.23394,-2.83741 L 13.192798,148.5949 13.06335,106.55254 C 12.941183,66.874771 12.90842,64.494097 12.480835,64.224405 c -0.330269,-0.208309 -0.575867,-0.208372 -0.906136,-2.25e-4 -0.422362,0.266189 -0.46337,1.555728 -0.605085,19.027517 -0.149995,18.492713 -0.159385,18.756313 -0.706101,19.820483 -1.7496816,3.40568 -6.6695286,3.40047 -8.5361526,-0.009 -0.410151,-0.74916 -0.436806,-2.25204 -0.351871,-19.839401 0.05055,-10.465861 0.197064,-19.602831 0.3256,-20.304377 0.739868,-4.038142 3.827528,-7.494929 7.798539,-8.730848 1.4221666,-0.442627 2.6704996,-0.478892 16.4845866,-0.478892 12.544053,0 15.156448,0.06253 16.25608,0.389081 4.218484,1.252756 7.413292,4.833411 8.110345,9.089854 0.36284,2.215627 0.329942,37.739433 -0.03617,39.058183 -0.582801,2.09925 -3.206127,3.78413 -5.234433,3.36191 -1.517466,-0.31588 -2.936815,-1.33718 -3.513285,-2.52802 -0.535381,-1.10594 -0.542659,-1.36835 -0.542659,-19.567308 0,-12.220422 -0.09046,-18.615344 -0.268003,-18.947098 -0.288853,-0.539725 -0.921618,-0.641031 -1.544267,-0.247235 -0.342589,0.216673 -0.388344,5.195717 -0.388344,42.260771 v 42.01516 l -0.55732,1.03558 c -0.716103,1.33063 -1.488472,2.0396 -2.937773,2.69665 -2.712479,1.22972 -5.852217,0.0903 -7.321318,-2.65697 l -0.575003,-1.07544 -0.06991,-24.14203 -0.06991,-24.14203 h -1.284104 -1.284105 l -0.06991,24.14203 -0.06991,24.14203 -0.575002,1.07526 c -1.372482,2.56658 -4.392957,3.79664 -7.000579,2.85093 z m 76.959648,-0.78527 c -1.522237,-0.715 -1.988006,-1.19091 -2.698484,-2.75724 -0.513001,-1.13096 -0.526484,-1.62136 -0.532028,-19.3478 l -0.0057,-18.18742 H 88.42187 c -2.085768,0 -2.384837,-0.0628 -3.078494,-0.64649 -0.42256,-0.35555 -0.84129,-0.9373 -0.930505,-1.29278 -0.09763,-0.389 1.238039,-7.82076 3.354903,-18.666884 1.934415,-9.91132 3.466607,-18.071093 3.404873,-18.13283 -0.138892,-0.13889 -0.323084,0.359019 -5.071427,13.709166 -4.002072,11.251986 -4.279249,11.83774 -6.035748,12.755381 -0.384509,0.200871 -1.300671,0.365232 -2.035917,0.365232 -2.658446,0 -4.643505,-1.953601 -4.643505,-4.569907 0,-1.011296 1.164339,-4.611796 5.416498,-16.749492 5.329351,-15.212522 6.465621,-18.156949 7.539702,-19.537695 1.417696,-1.822465 2.837757,-3.045719 4.389817,-3.781426 l 1.682822,-0.797692 10.547051,-0.07563 c 11.63587,-0.08344 12.03479,-0.04155 14.46705,1.519228 2.27516,1.459969 3.94557,3.907411 5.49975,8.058083 1.22476,3.270912 10.43759,29.680497 10.6494,30.527674 0.21105,0.844112 -0.27448,2.709164 -0.95352,3.662793 -1.55319,2.18125 -5.35096,2.331929 -7.24081,0.287294 -0.7257,-0.785139 -1.0839,-1.734579 -6.33503,-16.791993 -1.68772,-4.839485 -3.1017,-8.625835 -3.14215,-8.414113 -0.0405,0.211726 1.44365,8.214121 3.29803,17.783103 1.85437,9.568978 3.37159,17.823088 3.37159,18.342448 0,0.72255 -0.18883,1.12069 -0.80406,1.69541 -0.76254,0.71232 -0.923,0.75112 -3.10676,0.75112 h -2.30268 v 17.59217 c 0,11.40473 -0.0964,18.04182 -0.27418,18.87065 -0.53285,2.4846 -2.93607,4.42527 -5.49457,4.43702 -2.22428,0.0102 -4.06117,-1.13243 -5.19331,-3.23051 -0.55532,-1.02913 -0.55927,-1.14987 -0.63336,-19.35246 l -0.0746,-18.31687 h -1.28464 -1.28465 l -0.003,18.18742 -0.003,18.18743 -0.60801,1.29448 c -0.71499,1.52224 -1.1909,1.988 -2.757227,2.69849 -1.548508,0.70239 -3.183892,0.67663 -4.784917,-0.0753 z m -32.103075,-5.695 c -0.427179,-0.19646 -1.067946,-0.6727 -1.423928,-1.05831 l -0.647239,-0.70111 V 91.504535 38.727655 l 0.765935,-0.799466 c 1.924913,-2.009176 5.117384,-1.42824 6.077558,1.10594 0.19224,0.50738 0.276141,16.458356 0.276141,52.499434 0,43.555567 -0.05698,51.906977 -0.359052,52.629947 -0.701852,1.67976 -3.06339,2.62516 -4.689415,1.87732 z M 101.83111,50.346857 c -5.769063,-1.010488 -9.392335,-6.696125 -7.882235,-12.368789 1.738319,-6.529962 9.392775,-9.361356 15.088015,-5.581075 2.33376,1.549064 3.75779,3.825388 4.2309,6.763148 1.05028,6.521628 -4.89116,12.333208 -11.43668,11.186716 z M 24.547163,50.067496 c -5.343418,-0.714415 -9.257548,-6.030969 -8.392884,-11.400038 1.264225,-7.850119 10.739444,-11.178329 16.529378,-5.806013 7.206445,6.686654 1.615408,18.509883 -8.136494,17.206051 z"
       id="path151" />
  </g>
</svg>
